<svg width="450" height="88" viewBox="0 0 450 88" fill="none" xmlns="http://www.w3.org/2000/svg">
<path d="M86.568 83.12C78.76 86 70.92 87.44 63.048 87.44C55.176 87.44 49.48 85.872 45.96 82.736C42.504 79.6 40.776 74.768 40.776 68.24C40.776 65.488 41.224 61.424 42.12 56.048C44.04 44.912 47.432 36.88 52.296 31.952C57.16 27.024 65.224 24.56 76.488 24.56C78.92 24.56 81.96 24.816 85.608 25.328C89.256 25.84 91.944 26.416 93.672 27.056L88.392 41.744C83.592 40.848 79.176 40.4 75.144 40.4C71.176 40.4 68.328 40.72 66.6 41.36C64.872 42 63.848 43.28 63.528 45.2L58.824 72.368H64.872C67.048 72.368 68.648 72.144 69.672 71.696C70.76 71.184 71.464 70.064 71.784 68.336L72.264 65.744H67.656L70.248 51.056H92.232L86.568 83.12ZM39.432 55.568C39.304 56.08 39.176 56.784 39.048 57.68L1.32 53.648H39.72L39.432 55.568ZM38.376 62.864C38.184 64.336 38.088 65.68 38.088 66.896L0.263999 62.864H38.376ZM42.024 44.432L40.872 48.368L3.624 44.432H42.024ZM38.184 72.08C38.44 73.872 38.664 75.216 38.856 76.112L1.512 72.08H38.184ZM45.96 35.216C45.064 36.88 44.424 38.16 44.04 39.056L8.136 35.216H45.96ZM41.064 81.392C41.896 82.864 42.856 84.048 43.944 84.944L10.728 81.392H41.064ZM55.08 26C53.224 27.152 51.784 28.208 50.76 29.168L21.384 26H55.08ZM143.458 34.256C150.37 34.256 155.298 35.6 158.242 38.288C161.186 40.912 162.658 45.04 162.658 50.672C162.658 53.424 162.306 56.752 161.602 60.656C160.002 69.872 157.186 76.592 153.154 80.816C149.122 85.04 142.786 87.152 134.146 87.152C127.362 87.152 122.53 85.84 119.65 83.216C116.77 80.528 115.33 76.4 115.33 70.832C115.33 67.952 115.682 64.56 116.386 60.656C117.986 51.44 120.77 44.752 124.738 40.592C128.706 36.368 134.946 34.256 143.458 34.256ZM136.93 72.56C138.786 72.56 140.162 72.336 141.058 71.888C142.018 71.44 142.658 70.448 142.978 68.912L146.626 48.848H140.77C138.978 48.848 137.57 49.072 136.546 49.52C135.586 49.968 135.01 50.928 134.818 52.4L131.266 72.56H136.93ZM113.026 62.864C112.77 64.848 112.61 66.192 112.546 66.896L74.7217 62.864H113.026ZM114.85 53.648L113.986 57.68L76.4497 53.648H114.85ZM112.45 72.08C112.45 73.104 112.578 74.448 112.834 76.112L75.1057 72.08H112.45ZM118.21 44.432C117.442 46.096 116.898 47.376 116.578 48.272L80.2897 44.432H118.21ZM114.466 81.392C115.234 82.928 116.066 84.112 116.962 84.944L83.4577 81.392H114.466ZM126.562 35.216C125.026 36.112 123.714 37.168 122.626 38.384L93.1537 35.216H126.562Z" fill="#40FF5E"/>
<path d="M219.662 71.504H207.758L205.262 86H187.022L197.582 26H226.382C237.262 26 242.702 31.056 242.702 41.168C242.702 45.968 242.03 50.32 240.686 54.224C239.342 58.064 237.838 61.136 236.174 63.44C234.574 65.68 232.334 67.6 229.454 69.2C226.638 70.736 223.374 71.504 219.662 71.504ZM214.67 56.144C216.846 56.144 218.478 55.92 219.566 55.472C220.718 54.96 221.454 53.84 221.774 52.112C222.606 47.376 223.022 44.784 223.022 44.336C223.022 43.12 222.542 42.32 221.582 41.936C220.622 41.552 219.182 41.36 217.262 41.36H213.038L210.446 56.144H214.67ZM184.142 85.712L143.438 81.392H184.91L184.142 85.712ZM187.406 67.184L146.701 62.864H188.174L187.406 67.184ZM190.574 48.752L149.965 44.432H191.342L190.574 48.752ZM192.206 39.536L151.597 35.216H192.974L192.206 39.536ZM185.774 76.4L145.069 72.08H186.542L185.774 76.4ZM193.838 30.32L153.229 26H194.606L193.838 30.32ZM188.942 57.968L148.333 53.648H189.71L188.942 57.968ZM287.871 86L287.487 78.224H275.391L272.415 86H255.807L277.119 35.216H300.927L304.671 86H287.871ZM287.487 64.496V49.904H286.143L280.479 64.496H287.487ZM252.735 85.616L213.375 81.392H254.559L252.735 85.616ZM256.671 76.304L217.311 72.08H258.495L256.671 76.304ZM260.607 67.088L221.247 62.864H262.335L260.607 67.088ZM264.447 57.872L225.183 53.648H266.271L264.447 57.872ZM268.383 48.656L229.119 44.432H270.111L268.383 48.656ZM272.223 39.344L233.055 35.216H273.951L272.223 39.344ZM362.925 35.216C372.269 35.216 376.941 39.44 376.941 47.888C376.941 51.728 376.173 55.728 374.637 59.888C373.101 63.984 370.509 67.056 366.861 69.104L372.333 86H354.381L350.733 71.216H348.429L345.837 86H329.709L338.541 35.216H362.925ZM359.373 51.824C359.373 51.76 359.405 51.44 359.469 50.864C359.469 49.776 357.773 49.232 354.381 49.232H352.269L350.733 58.064H353.805C356.749 58.064 358.413 57.104 358.797 55.184L359.373 51.824ZM326.541 85.712L285.837 81.392H327.309L326.541 85.712ZM329.805 67.184L289.101 62.864H330.573L329.805 67.184ZM331.437 57.968L290.733 53.648H332.205L331.437 57.968ZM333.069 48.752L292.365 44.432H333.837L333.069 48.752ZM334.701 39.536L293.997 35.216H335.373L334.701 39.536ZM328.173 76.4L287.469 72.08H328.941L328.173 76.4ZM422.993 86L418.481 69.392H417.905L415.025 86H398.897L407.729 35.216H423.953L421.169 50.768H421.649L431.537 35.216H449.105L432.977 60.08L440.561 86H422.993ZM395.729 85.712L355.024 81.392H396.497L395.729 85.712ZM398.993 67.184L358.288 62.864H399.761L398.993 67.184ZM400.625 57.968L359.92 53.648H401.393L400.625 57.968ZM402.257 48.752L361.552 44.432H403.025L402.257 48.752ZM403.889 39.536L363.184 35.216H404.561L403.889 39.536ZM397.361 76.4L356.656 72.08H398.129L397.361 76.4Z" fill="black"/>
<path d="M86.568 83.12C78.76 86 70.92 87.44 63.048 87.44C55.176 87.44 49.48 85.872 45.96 82.736C42.504 79.6 40.776 74.768 40.776 68.24C40.776 65.488 41.224 61.424 42.12 56.048C44.04 44.912 47.432 36.88 52.296 31.952C57.16 27.024 65.224 24.56 76.488 24.56C78.92 24.56 81.96 24.816 85.608 25.328C89.256 25.84 91.944 26.416 93.672 27.056L88.392 41.744C83.592 40.848 79.176 40.4 75.144 40.4C71.176 40.4 68.328 40.72 66.6 41.36C64.872 42 63.848 43.28 63.528 45.2L58.824 72.368H64.872C67.048 72.368 68.648 72.144 69.672 71.696C70.76 71.184 71.464 70.064 71.784 68.336L72.264 65.744H67.656L70.248 51.056H92.232L86.568 83.12ZM39.432 55.568C39.304 56.08 39.176 56.784 39.048 57.68L1.32 53.648H39.72L39.432 55.568ZM38.376 62.864C38.184 64.336 38.088 65.68 38.088 66.896L0.263999 62.864H38.376ZM42.024 44.432L40.872 48.368L3.624 44.432H42.024ZM38.184 72.08C38.44 73.872 38.664 75.216 38.856 76.112L1.512 72.08H38.184ZM45.96 35.216C45.064 36.88 44.424 38.16 44.04 39.056L8.136 35.216H45.96ZM41.064 81.392C41.896 82.864 42.856 84.048 43.944 84.944L10.728 81.392H41.064ZM55.08 26C53.224 27.152 51.784 28.208 50.76 29.168L21.384 26H55.08ZM143.458 34.256C150.37 34.256 155.298 35.6 158.242 38.288C161.186 40.912 162.658 45.04 162.658 50.672C162.658 53.424 162.306 56.752 161.602 60.656C160.002 69.872 157.186 76.592 153.154 80.816C149.122 85.04 142.786 87.152 134.146 87.152C127.362 87.152 122.53 85.84 119.65 83.216C116.77 80.528 115.33 76.4 115.33 70.832C115.33 67.952 115.682 64.56 116.386 60.656C117.986 51.44 120.77 44.752 124.738 40.592C128.706 36.368 134.946 34.256 143.458 34.256ZM136.93 72.56C138.786 72.56 140.162 72.336 141.058 71.888C142.018 71.44 142.658 70.448 142.978 68.912L146.626 48.848H140.77C138.978 48.848 137.57 49.072 136.546 49.52C135.586 49.968 135.01 50.928 134.818 52.4L131.266 72.56H136.93ZM113.026 62.864C112.77 64.848 112.61 66.192 112.546 66.896L74.7217 62.864H113.026ZM114.85 53.648L113.986 57.68L76.4497 53.648H114.85ZM112.45 72.08C112.45 73.104 112.578 74.448 112.834 76.112L75.1057 72.08H112.45ZM118.21 44.432C117.442 46.096 116.898 47.376 116.578 48.272L80.2897 44.432H118.21ZM114.466 81.392C115.234 82.928 116.066 84.112 116.962 84.944L83.4577 81.392H114.466ZM126.562 35.216C125.026 36.112 123.714 37.168 122.626 38.384L93.1537 35.216H126.562Z" fill="#40FF5E"/>
</svg>
