<svg width="188" height="88" viewBox="0 0 188 88" fill="none" xmlns="http://www.w3.org/2000/svg">
<path d="M86.568 83.12C78.76 86 70.92 87.44 63.048 87.44C55.176 87.44 49.48 85.872 45.96 82.736C42.504 79.6 40.776 74.768 40.776 68.24C40.776 65.488 41.224 61.424 42.12 56.048C44.04 44.912 47.432 36.88 52.296 31.952C57.16 27.024 65.224 24.56 76.488 24.56C78.92 24.56 81.96 24.816 85.608 25.328C89.256 25.84 91.944 26.416 93.672 27.056L88.392 41.744C83.592 40.848 79.176 40.4 75.144 40.4C71.176 40.4 68.328 40.72 66.6 41.36C64.872 42 63.848 43.28 63.528 45.2L58.824 72.368H64.872C67.048 72.368 68.648 72.144 69.672 71.696C70.76 71.184 71.464 70.064 71.784 68.336L72.264 65.744H67.656L70.248 51.056H92.232L86.568 83.12ZM39.432 55.568C39.304 56.08 39.176 56.784 39.048 57.68L1.32 53.648H39.72L39.432 55.568ZM38.376 62.864C38.184 64.336 38.088 65.68 38.088 66.896L0.263999 62.864H38.376ZM42.024 44.432L40.872 48.368L3.624 44.432H42.024ZM38.184 72.08C38.44 73.872 38.664 75.216 38.856 76.112L1.512 72.08H38.184ZM45.96 35.216C45.064 36.88 44.424 38.16 44.04 39.056L8.136 35.216H45.96ZM41.064 81.392C41.896 82.864 42.856 84.048 43.944 84.944L10.728 81.392H41.064ZM55.08 26C53.224 27.152 51.784 28.208 50.76 29.168L21.384 26H55.08Z" fill="#40FF5E"/>
<path d="M146.818 71.504H134.914L132.418 86H114.178L124.738 26H153.538C164.418 26 169.858 31.056 169.858 41.168C169.858 45.968 169.186 50.32 167.842 54.224C166.498 58.064 164.994 61.136 163.33 63.44C161.73 65.68 159.49 67.6 156.61 69.2C153.794 70.736 150.53 71.504 146.818 71.504ZM141.826 56.144C144.002 56.144 145.634 55.92 146.722 55.472C147.874 54.96 148.61 53.84 148.93 52.112C149.762 47.376 150.178 44.784 150.178 44.336C150.178 43.12 149.698 42.32 148.738 41.936C147.778 41.552 146.338 41.36 144.418 41.36H140.194L137.602 56.144H141.826ZM111.298 85.712L70.5938 81.392H112.066L111.298 85.712ZM114.562 67.184L73.8577 62.864H115.33L114.562 67.184ZM117.73 48.752L77.1217 44.432H118.498L117.73 48.752ZM119.362 39.536L78.7537 35.216H120.13L119.362 39.536ZM112.93 76.4L72.2257 72.08H113.698L112.93 76.4ZM120.994 30.32L80.3857 26H121.762L120.994 30.32ZM116.098 57.968L75.4897 53.648H116.866L116.098 57.968Z" fill="black"/>
<path d="M86.568 83.12C78.76 86 70.92 87.44 63.048 87.44C55.176 87.44 49.48 85.872 45.96 82.736C42.504 79.6 40.776 74.768 40.776 68.24C40.776 65.488 41.224 61.424 42.12 56.048C44.04 44.912 47.432 36.88 52.296 31.952C57.16 27.024 65.224 24.56 76.488 24.56C78.92 24.56 81.96 24.816 85.608 25.328C89.256 25.84 91.944 26.416 93.672 27.056L88.392 41.744C83.592 40.848 79.176 40.4 75.144 40.4C71.176 40.4 68.328 40.72 66.6 41.36C64.872 42 63.848 43.28 63.528 45.2L58.824 72.368H64.872C67.048 72.368 68.648 72.144 69.672 71.696C70.76 71.184 71.464 70.064 71.784 68.336L72.264 65.744H67.656L70.248 51.056H92.232L86.568 83.12ZM39.432 55.568C39.304 56.08 39.176 56.784 39.048 57.68L1.32 53.648H39.72L39.432 55.568ZM38.376 62.864C38.184 64.336 38.088 65.68 38.088 66.896L0.263999 62.864H38.376ZM42.024 44.432L40.872 48.368L3.624 44.432H42.024ZM38.184 72.08C38.44 73.872 38.664 75.216 38.856 76.112L1.512 72.08H38.184ZM45.96 35.216C45.064 36.88 44.424 38.16 44.04 39.056L8.136 35.216H45.96ZM41.064 81.392C41.896 82.864 42.856 84.048 43.944 84.944L10.728 81.392H41.064ZM55.08 26C53.224 27.152 51.784 28.208 50.76 29.168L21.384 26H55.08Z" fill="#40FF5E"/>
</svg>
